<?xml version="1.0"?>
<svg xmlns="http://www.w3.org/2000/svg" xmlns:xlink="http://www.w3.org/1999/xlink" version="1.1" viewBox="0 0 192 192" width="90px" height="90px"><g fill="none" fill-rule="nonzero" stroke="none" stroke-width="1" stroke-linecap="butt" stroke-linejoin="miter" stroke-miterlimit="10" stroke-dasharray="" stroke-dashoffset="0" font-family="none" font-weight="none" font-size="none" text-anchor="none" style="mix-blend-mode: normal"><path d="M0,192v-192h192v192z" fill="none"/><g fill="#6b5152"><path d="M152,24h-112c-8.84,0 -16,7.16 -16,16v112c0,8.84 7.16,16 16,16h112c8.84,0 16,-7.16 16,-16v-112c0,-8.84 -7.16,-16 -16,-16zM72,136h-20.184v-56h20.184zM61.552,69.736c-6.168,0 -10.288,-4.112 -10.288,-9.6c0,-5.488 4.112,-9.6 10.968,-9.6c6.168,0 10.288,4.112 10.288,9.6c0,5.488 -4.112,9.6 -10.968,9.6zM144,136h-19.536v-30.608c0,-8.464 -5.208,-10.416 -7.16,-10.416c-1.952,0 -8.464,1.304 -8.464,10.416c0,1.304 0,30.608 0,30.608h-20.184v-56h20.184v7.816c2.6,-4.56 7.808,-7.816 17.576,-7.816c9.768,0 17.584,7.816 17.584,25.392z"/></g></g></svg>
