<?xml version="1.0"?>
<svg xmlns="http://www.w3.org/2000/svg" xmlns:xlink="http://www.w3.org/1999/xlink" version="1.1" viewBox="0 0 192 192" width="90px" height="90px"><g fill="none" fill-rule="nonzero" stroke="none" stroke-width="1" stroke-linecap="butt" stroke-linejoin="miter" stroke-miterlimit="10" stroke-dasharray="" stroke-dashoffset="0" font-family="none" font-weight="none" font-size="none" text-anchor="none" style="mix-blend-mode: normal"><path d="M0,192v-192h192v192z" fill="none"/><g fill="#6b5152"><g id="surface1"><path d="M96,16c-44.1875,0 -80,35.8125 -80,80c0,44.1875 35.8125,80 80,80c44.1875,0 80,-35.8125 80,-80c0,-44.1875 -35.8125,-80 -80,-80zM96,32c35.28125,0 64,28.71875 64,64c0,3.75 -0.375,7.4375 -1,11c-1.96875,-0.4375 -4.875,-0.96875 -8.25,-1c-2.5,-0.03125 -5.625,0.375 -8.25,0.75c0.90625,-2.78125 1.5,-5.84375 1.5,-9c0,-7.6875 -3.75,-14.84375 -9.75,-20.75c1.65625,-6.15625 3.28125,-16.71875 -1,-21c-12.65625,0 -19.65625,9.03125 -20,9.5c-3.90625,-0.9375 -7.9375,-1.5 -12.25,-1.5c-5.53125,0 -10.8125,1 -15.75,2.5l1.5,-1.25c0,0 -7.03125,-9.75 -20,-9.75c-4.53125,4.5625 -2.46875,16.125 -0.75,22c-6.125,5.84375 -10,12.75 -10,20.25c0,2.625 0.625,5.125 1.25,7.5c-2.21875,-0.25 -10.21875,-1 -13.5,-1c-2.90625,0 -7.40625,0.6875 -11,1.5c-0.5,-3.1875 -0.75,-6.4375 -0.75,-9.75c0,-35.28125 28.71875,-64 64,-64zM43.75,106.25c3.15625,0 12.75,1.125 14,1.25c0.15625,0.4375 0.3125,0.84375 0.5,1.25c-3.4375,-0.3125 -10.09375,-0.78125 -14.5,-0.25c-2.9375,0.34375 -6.6875,1.40625 -10,2.25c-0.25,-1 -0.5625,-1.96875 -0.75,-3c3.5,-0.75 8.09375,-1.5 10.75,-1.5zM150.75,108c3.1875,0.03125 6.09375,0.5625 8,1c-0.09375,0.53125 -0.375,0.96875 -0.5,1.5c-2.03125,-0.46875 -5.375,-1.15625 -9.25,-1.25c-1.875,-0.03125 -4.875,0.0625 -7.5,0.25c0.125,-0.25 0.15625,-0.5 0.25,-0.75c2.71875,-0.375 6.1875,-0.78125 9,-0.75zM48.75,110.25c4.5,0.03125 8.71875,0.34375 10.5,0.5c4.1875,7.8125 12.65625,13.59375 25.75,16c-3.21875,1.78125 -6.09375,4.28125 -8.25,7.25c-1.875,0.15625 -3.84375,0.25 -5.75,0.25c-5.5625,0 -9.03125,-4.96875 -12,-9.25c-3,-4.28125 -6.6875,-4.75 -8.75,-5c-2.09375,-0.25 -2.8125,0.9375 -1.75,1.75c6.09375,4.6875 8.28125,10.25 10.75,15.25c2.21875,4.5 6.875,7 12,7h1c-0.15625,0.875 -0.25,1.6875 -0.25,2.5v8.75c-18.46875,-7.46875 -32.53125,-23.25 -37.75,-42.75c3.28125,-0.8125 6.96875,-1.65625 9.75,-2c1.28125,-0.15625 2.90625,-0.28125 4.75,-0.25zM149,111.25c3.59375,0.09375 6.78125,0.78125 8.75,1.25c-4.40625,16.5625 -15.28125,30.34375 -29.75,38.75v-4.75c0,-6.8125 -5.375,-15.5625 -13,-19.75c12.65625,-2.3125 20.90625,-7.84375 25.25,-15.25c3.03125,-0.21875 6.59375,-0.3125 8.75,-0.25zM100,144c2.1875,0 4,1.8125 4,4v11.5c-2.625,0.34375 -5.28125,0.5 -8,0.5v-12c0,-2.1875 1.8125,-4 4,-4zM84,152c2.1875,0 4,1.8125 4,4v3.5c-2.6875,-0.34375 -5.40625,-0.84375 -8,-1.5v-2c0,-2.1875 1.8125,-4 4,-4zM116,152c1.9375,0 3.625,1.40625 4,3.25c-2.59375,1.0625 -5.25,2.03125 -8,2.75v-2c0,-2.1875 1.8125,-4 4,-4z"/></g></g></g></svg>
