<?xml version="1.0"?>
<svg xmlns="http://www.w3.org/2000/svg" xmlns:xlink="http://www.w3.org/1999/xlink" version="1.1" viewBox="0 0 192 192" width="90px" height="90px"><g fill="none" fill-rule="nonzero" stroke="none" stroke-width="1" stroke-linecap="butt" stroke-linejoin="miter" stroke-miterlimit="10" stroke-dasharray="" stroke-dashoffset="0" font-family="none" font-weight="none" font-size="none" text-anchor="none" style="mix-blend-mode: normal"><path d="M0,192v-192h192v192z" fill="none"/><g fill="#6b5152"><path d="M84,24c-37.496,0 -68,25.12 -68,56c0,10.904 3.76988,21.3495 10.92188,30.4375l-3.59375,40.17187l29.04688,-21.03125c9.11529,3.94397 19.19432,6.04673 29.5,6.3125c5.8003,18.55682 24.59261,31.79687 46.125,31.79688c6.82146,0 12.81998,-2.1759 18.60938,-4.51563l30.15625,12.40626l-5.65625,-34.89062c2.50126,-5.20334 4.89062,-10.60388 4.89062,-16.84375c0,-16.54381 -9.96791,-30.63434 -24.375,-38.10938c0.23346,-1.9002 0.375,-3.80646 0.375,-5.73438c0,-30.88 -30.504,-56 -68,-56zM64.14062,54c5.528,0 10,4.43462 10,9.89062c0,5.456 -4.472,10.10938 -10,10.10938c-5.528,0 -10,-4.63738 -10,-10.10938c0,-5.464 4.472,-9.89062 10,-9.89062zM104.10938,54c5.456,0 9.89062,4.43462 9.89062,9.89062c0,5.472 -4.42662,10.10938 -9.89062,10.10938c-5.48,0 -10.10938,-4.63738 -10.10938,-10.10938c0,-5.464 4.63738,-9.89062 10.10938,-9.89062zM128,96c18.21307,0 32,12.87848 32,27.84375c0,4.52165 -1.36651,8.76353 -3.8125,12.8125l-1.51563,2.51562l0.46875,2.90626l1.26562,7.8125l-9.1875,-3.78125l-3.26562,1.67187c-4.80178,2.44059 -10.15534,3.90626 -15.95313,3.90626c-18.21307,0 -32,-12.87849 -32,-27.84375c0,-14.96527 13.78693,-27.84375 32,-27.84375zM112.17187,112c-4.416,0 -8.17187,3.576 -8.17187,8c0,4.424 3.77987,8 8.17187,8c4.392,0 7.95313,-3.576 7.95313,-8c0,-4.424 -3.55313,-8 -7.95313,-8zM143.9375,112c-4.38481,0.00361 -7.93751,3.58428 -7.9375,8c0,4.41572 3.55269,7.99639 7.9375,8c2.10846,0.00244 4.13139,-0.83934 5.62315,-2.3399c1.49176,-1.50056 2.32997,-3.53678 2.32997,-5.6601c0,-2.12332 -0.83821,-4.15955 -2.32997,-5.6601c-1.49176,-1.50056 -3.51469,-2.34233 -5.62315,-2.3399z"/></g></g></svg>
