<svg xmlns="http://www.w3.org/2000/svg" viewBox="0 0 382.94 382.94">
  <title>Logo</title>
  <g id="Layer_2" data-name="Layer 2">
    <g id="Layer_1-2" data-name="Layer 1">
      <g>
        <path fill="#ffffff" d="M299,335.66H83.92a36.67,36.67,0,0,1-31.71-18.31H2a84.05,84.05,0,0,0,81.88,65.59H299a84.05,84.05,0,0,0,81.88-65.59H330.73A36.67,36.67,0,0,1,299,335.66Z"/>
        <path fill="#ffffff" d="M83.92,47.28H299a36.7,36.7,0,0,1,33.76,22.4H381.7A84,84,0,0,0,299,0H83.92A84,84,0,0,0,1.23,69.68H50.16A36.7,36.7,0,0,1,83.92,47.28Z"/>
        <polygon fill="#ffffff" points="335.66 100.05 335.66 166.44 47.28 166.44 47.28 100.05 0 100.05 0 286.97 47.28 286.97 47.28 215.75 335.66 215.75 335.66 286.97 382.94 286.97 382.94 100.05 335.66 100.05"/>
      </g>
    </g>
  </g>
</svg>
